<svg width="336" height="342" viewBox="0 0 336 342" fill="none" xmlns="http://www.w3.org/2000/svg">
<path d="M182.384 79.4372C257.014 82.896 269.097 150.303 259.146 189.926L241.97 261.481C240.534 267.462 238.351 273.311 234.956 278.44C198.879 332.95 144.584 318.986 110.534 276.051L32.9748 178.252C-2.06065 134.074 42.6438 87.7495 90.5898 82.3422L182.384 79.4372Z" fill="#EDCFAA"/>
<path d="M191.597 72.7126C266.227 76.151 278.329 143.555 268.389 183.18L251.232 254.74C249.798 260.722 247.617 266.571 244.223 271.701C208.162 326.221 153.862 312.272 119.801 269.347L42.2147 171.569C7.16719 127.4 51.8589 81.0633 99.8034 75.6428L191.597 72.7126Z" fill="#393A3E"/>
<path d="M170.001 161H146.667V166.875H170.001V161Z" fill="#835331"/>
<path d="M181.667 155.125H170V161H181.667V155.125Z" fill="#835331"/>
<path d="M146.667 149.25H140.834V161H146.667V149.25Z" fill="#5F2F0C"/>
<path d="M234.167 149.25H228.334V196.25H234.167V149.25Z" fill="black"/>
<path d="M228.334 196.25H222.5V202.125H228.334V196.25Z" fill="black"/>
<path d="M228.334 190.375H222.5V196.25H228.334V190.375Z" fill="#835331"/>
<path d="M228.334 143.375H222.5V149.25H228.334V143.375Z" fill="black"/>
<path d="M222.501 202.125H216.667V208H222.501V202.125Z" fill="black"/>
<path d="M222.501 184.5H216.667V190.375H222.501V184.5Z" fill="#835331"/>
<path d="M222.501 137.5H216.667V143.375H222.501V137.5Z" fill="black"/>
<path d="M216.667 208H210.834V213.875H216.667V208Z" fill="black"/>
<path d="M216.667 202.125H210.834V208H216.667V202.125Z" fill="#835331"/>
<path d="M216.667 178.625H210.834V184.5H216.667V178.625Z" fill="#835331"/>
<path d="M216.667 131.625H210.834V137.5H216.667V131.625Z" fill="black"/>
<path d="M210.834 213.875H205V219.75H210.834V213.875Z" fill="black"/>
<path d="M210.834 196.25H205V202.125H210.834V196.25Z" fill="#835331"/>
<path d="M210.834 172.75H205V178.625H210.834V172.75Z" fill="#835331"/>
<path d="M210.834 125.75H129.167V131.625H210.834V125.75Z" fill="black"/>
<path d="M205.001 219.75H199.167V225.625H205.001V219.75Z" fill="black"/>
<path d="M205.001 213.875H199.167V219.75H205.001V213.875Z" fill="#835331"/>
<path d="M205.001 190.375H199.167V196.25H205.001V190.375Z" fill="#835331"/>
<path d="M216.667 149.25V155.125H210.834V166.875H205V172.75H199.167V166.875H193.334V161H199.167V155.125H205V149.25H216.667Z" fill="#835331"/>
<path d="M205.001 149.25H199.167V155.125H205.001V149.25Z" fill="#5F2F0C"/>
<path d="M199.167 225.625H193.334V231.5H199.167V225.625Z" fill="black"/>
<path d="M199.167 208H193.334V213.875H199.167V208Z" fill="#835331"/>
<path d="M199.167 184.5H193.334V190.375H199.167V184.5Z" fill="#835331"/>
<path d="M193.334 231.5H187.5V237.375H193.334V231.5Z" fill="black"/>
<path d="M193.334 225.625H187.5V231.5H193.334V225.625Z" fill="#835331"/>
<path d="M193.334 202.125H187.5V208H193.334V202.125Z" fill="#835331"/>
<path d="M199.167 155.125H187.5V161H199.167V155.125Z" fill="#5F2F0C"/>
<path d="M187.501 219.75H181.667V225.625H187.501V219.75Z" fill="#835331"/>
<path d="M187.501 196.25H181.667V202.125H187.501V196.25Z" fill="#835331"/>
<path d="M187.5 237.375H175.834V243.25H187.5V237.375Z" fill="black"/>
<path d="M187.5 225.625V237.375H175.834V231.5H170V225.625H175.834V219.75H181.667V225.625H187.5Z" fill="#FECF8F"/>
<path d="M181.667 213.875H175.834V219.75H181.667V213.875Z" fill="#835331"/>
<path d="M175.834 219.75H170V225.625H175.834V219.75Z" fill="#835331"/>
<path d="M187.5 149.25H170V155.125H187.5V149.25Z" fill="#5F2F0C"/>
<path d="M175.834 231.5H164.167V237.375H175.834V231.5Z" fill="black"/>
<path d="M170.001 225.625H164.167V231.5H170.001V225.625Z" fill="#835331"/>
<path d="M228.334 149.25V190.375H222.501V184.5H216.667V178.625H210.834V172.75H205.001V166.875H210.834V155.125H216.667V149.25H199.167V155.125H187.501V149.25H170.001V161H146.667V149.25H152.501V143.375H158.334V137.5H170.001V131.625H210.834V137.5H216.667V143.375H222.501V149.25H228.334Z" fill="#BC703C"/>
<path d="M164.167 231.5H158.334V237.375H164.167V231.5Z" fill="#835331"/>
<path d="M164.167 208H158.334V213.875H164.167V208Z" fill="#5F2F0C"/>
<path d="M170 131.625H158.334V137.5H170V131.625Z" fill="#5F2F0C"/>
<path d="M164.167 237.375H152.5V243.25H164.167V237.375Z" fill="black"/>
<path d="M158.334 213.875H152.5V219.75H158.334V213.875Z" fill="#5F2F0C"/>
<path d="M158.334 137.5H152.5V143.375H158.334V137.5Z" fill="#5F2F0C"/>
<path d="M152.501 231.5H146.667V237.375H152.501V231.5Z" fill="black"/>
<path d="M175.834 208V219.75H170.001V225.625H164.167V231.5H158.334V237.375H152.501V231.5H146.667V225.625H152.501V219.75H158.334V213.875H164.167V208H175.834Z" fill="#BC703C"/>
<path d="M152.501 219.75H146.667V225.625H152.501V219.75Z" fill="#5F2F0C"/>
<path d="M152.501 196.25H146.667V202.125H152.501V196.25Z" fill="#5F2F0C"/>
<path d="M152.501 143.375H146.667V149.25H152.501V143.375Z" fill="#5F2F0C"/>
<path d="M146.667 225.625H140.834V231.5H146.667V225.625Z" fill="black"/>
<path d="M164.167 196.25V208H158.334V213.875H152.5V219.75H146.667V225.625H140.834V219.75H135V213.875H140.834V208H146.667V202.125H152.5V196.25H164.167Z" fill="#BC703C"/>
<path d="M146.667 202.125H140.834V208H146.667V202.125Z" fill="#5F2F0C"/>
<path d="M140.834 219.75H135V225.625H140.834V219.75Z" fill="black"/>
<path d="M140.834 208H135V213.875H140.834V208Z" fill="#5F2F0C"/>
<path d="M140.834 184.5H135V190.375H140.834V184.5Z" fill="#5F2F0C"/>
<path d="M135.001 213.875H129.167V219.75H135.001V213.875Z" fill="black"/>
<path d="M135.001 190.375H129.167V196.25H135.001V190.375Z" fill="#5F2F0C"/>
<path d="M129.167 208H123.334V213.875H129.167V208Z" fill="black"/>
<path d="M152.5 184.5V196.25H146.667V202.125H140.834V208H135V213.875H129.167V208H123.334V202.125H129.167V196.25H135V190.375H140.834V184.5H152.5Z" fill="#BC703C"/>
<path d="M129.167 196.25H123.334V202.125H129.167V196.25Z" fill="#5F2F0C"/>
<path d="M129.167 131.625H123.334V137.5H129.167V131.625Z" fill="black"/>
<path d="M123.334 202.125H117.5V208H123.334V202.125Z" fill="black"/>
<path d="M140.834 172.75V184.5H135.001V190.375H129.167V196.25H123.334V202.125H117.501V196.25H111.667V190.375H117.501V184.5H123.334V178.625H129.167V172.75H140.834Z" fill="#BC703C"/>
<path d="M123.334 137.5H117.5V143.375H123.334V137.5Z" fill="black"/>
<path d="M117.501 196.25H111.667V202.125H117.501V196.25Z" fill="black"/>
<path d="M222.501 190.375V202.125H210.834V196.25H205.001V190.375H199.167V184.5H193.334V190.375H199.167V196.25H205.001V202.125H210.834V213.875H199.167V208H193.334V202.125H187.501V196.25H181.667V202.125H187.501V208H193.334V213.875H199.167V225.625H187.501V219.75H181.667V213.875H175.834V208H164.167V196.25H152.501V184.5H140.834V172.75H129.167V178.625H123.334V184.5H117.501V190.375H111.667V149.25H117.501V143.375H123.334V137.5H129.167V131.625H158.334V137.5H152.501V143.375H146.667V149.25H140.834V161H146.667V166.875H170.001V161H181.667V155.125H187.501V161H193.334V166.875H199.167V172.75H205.001V178.625H210.834V184.5H216.667V190.375H222.501Z" fill="#FECF8F"/>
<path d="M117.501 143.375H111.667V149.25H117.501V143.375Z" fill="black"/>
<path d="M111.667 149.25H105.834V196.25H111.667V149.25Z" fill="black"/>
</svg>
